<svg xmlns="http://www.w3.org/2000/svg" viewBox="0 0 512 512" width="512" height="512">
  <defs>
    <radialGradient id="bg" cx="70%" cy="28%" r="85%">
      <stop offset="0" stop-color="#1d3312"/><stop offset=".45" stop-color="#0b120d"/><stop offset="1" stop-color="#05070a"/>
    </radialGradient>
    <radialGradient id="glow" cx="50%" cy="50%" r="50%">
      <stop offset="0" stop-color="#9dff2e" stop-opacity=".55"/><stop offset=".5" stop-color="#9dff2e" stop-opacity=".16"/><stop offset="1" stop-color="#9dff2e" stop-opacity="0"/>
    </radialGradient>
    <linearGradient id="can" x1="0" x2="1">
      <stop offset="0" stop-color="#050505"/><stop offset=".3" stop-color="#2e3136"/><stop offset=".45" stop-color="#0d0e10"/><stop offset="1" stop-color="#050505"/>
    </linearGradient>
    <linearGradient id="rim" x1="0" x2="1">
      <stop offset="0" stop-color="#7d8793"/><stop offset=".4" stop-color="#f4f6f8"/><stop offset="1" stop-color="#7d8793"/>
    </linearGradient>
    <linearGradient id="jacket" x1="0" x2="1">
      <stop offset="0" stop-color="#d9cfbf"/><stop offset=".45" stop-color="#f4eee4"/><stop offset="1" stop-color="#d6cbb9"/>
    </linearGradient>
    <linearGradient id="hair" x1="0" y1="0" x2="0" y2="1">
      <stop offset="0" stop-color="#f6dc98"/><stop offset=".6" stop-color="#e2bc6c"/><stop offset="1" stop-color="#c99b4f"/>
    </linearGradient>
    <clipPath id="canClip"><rect x="-38" y="-72" width="76" height="144" rx="11"/></clipPath>
    <filter id="soft" x="-50%" y="-50%" width="200%" height="200%"><feGaussianBlur stdDeviation="3"/></filter>
  </defs>

  <rect width="512" height="512" fill="url(#bg)"/>
  <!-- Strahlen hinter der Dose -->
  <g transform="translate(378 150)" opacity=".15" fill="#9dff2e">
    <path d="M0 0 L-24 -320 L24 -320 Z"/><path d="M0 0 L-24 -320 L24 -320 Z" transform="rotate(40)"/>
    <path d="M0 0 L-24 -320 L24 -320 Z" transform="rotate(80)"/><path d="M0 0 L-24 -320 L24 -320 Z" transform="rotate(-40)"/>
    <path d="M0 0 L-24 -320 L24 -320 Z" transform="rotate(-80)"/><path d="M0 0 L-24 -320 L24 -320 Z" transform="rotate(120)"/>
    <path d="M0 0 L-24 -320 L24 -320 Z" transform="rotate(-120)"/><path d="M0 0 L-24 -320 L24 -320 Z" transform="rotate(160)"/>
  </g>
  <circle cx="378" cy="150" r="130" fill="url(#glow)"/>
  <!-- Funken -->
  <g fill="#c4ff7a">
    <path d="M300 70 l5 14 14 5 -14 5 -5 14 -5 -14 -14 -5 14 -5 z"/>
    <path d="M462 250 l4 11 11 4 -11 4 -4 11 -4 -11 -11 -4 11 -4 z"/>
    <path d="M470 60 l3 8 8 3 -8 3 -3 8 -3 -8 -8 -3 8 -3 z" fill="#ffffff"/>
    <path d="M80 110 l3 9 9 3 -9 3 -3 9 -3 -9 -9 -3 9 -3 z" opacity=".7"/>
  </g>

  <g stroke="#1b120c" stroke-width="5" stroke-linejoin="round" stroke-linecap="round">
    <!-- Körper: Schultern und Oberkörper in der offenen Jacke -->
    <path d="M58 512 C60 452 86 414 136 398 C168 388 196 380 210 368 L262 368 C276 380 304 388 336 398 C372 410 398 436 404 476 L408 512 Z" fill="url(#jacket)"/>
    <!-- schwarzes Shirt mit Rundkragen -->
    <path d="M194 378 C212 396 258 396 276 378 L290 512 L180 512 Z" fill="#15171c"/>
    <path d="M204 382 C218 396 252 396 266 382" fill="none" stroke="#2d313a" stroke-width="4"/>
    <!-- Jackenkanten mit Reißverschluss -->
    <path d="M194 378 C190 420 186 470 184 512" fill="none" stroke-width="4"/>
    <path d="M276 378 C282 420 286 470 288 512" fill="none" stroke-width="4"/>
    <path d="M186 400 L180 512 M284 400 L290 512" fill="none" stroke="#7a7266" stroke-width="2.5" stroke-dasharray="3 4"/>
    <!-- Falten und herabhängender linker Arm -->
    <path d="M118 424 C104 452 98 484 98 512" fill="none" stroke="#b9ad9b" stroke-width="3.5"/>
    <path d="M140 452 C146 470 150 490 150 512" fill="none" stroke="#cdc2b1" stroke-width="3"/>
    <!-- Kapuze hinter dem Nacken -->
    <path d="M170 384 C168 352 302 352 300 384 C288 368 182 368 170 384 Z" fill="#e6ddcf"/>
    <!-- Hals mit Schatten unter dem Bart -->
    <path d="M210 318 L208 366 C220 380 250 380 262 366 L260 318 Z" fill="#eab596"/>
    <path d="M212 340 C224 352 246 352 258 340" fill="none" stroke="#d99a7c" stroke-width="4"/>
    <!-- rechter Arm: Oberarm zur Seite, Ellbogen, Unterarm nach oben -->
    <path d="M334 404 C372 396 412 380 430 350 C442 330 434 300 422 280 L396 234" fill="none" stroke="#1b120c" stroke-width="70"/>
    <path d="M334 404 C372 396 412 380 430 350 C442 330 434 300 422 280 L396 234" fill="none" stroke="#efe7da" stroke-width="60"/>
    <path d="M420 352 C412 344 404 342 396 344" fill="none" stroke="#c9bda9" stroke-width="3.5"/>
    <path d="M370 398 C380 392 392 388 402 384" fill="none" stroke="#c9bda9" stroke-width="3"/>
    <!-- Bündchen am Handgelenk -->
    <path d="M374 250 L420 228 L430 248 L386 272 Z" fill="#ddd3c3" stroke-width="4"/>
    <!-- Ohren -->
    <ellipse cx="160" cy="236" rx="15" ry="22" fill="#f0bfa2"/>
    <ellipse cx="310" cy="236" rx="15" ry="22" fill="#f0bfa2"/>
    <!-- Gesicht -->
    <path d="M162 206 C162 146 198 120 235 120 C274 120 308 146 308 206 L306 254 C302 304 272 334 235 336 C198 334 168 304 164 254 Z" fill="#f4c7aa"/>
  </g>
  <!-- Wangen -->
  <ellipse cx="192" cy="262" rx="18" ry="10" fill="#ee8f86" opacity=".45"/>
  <ellipse cx="278" cy="262" rx="18" ry="10" fill="#ee8f86" opacity=".45"/>

  <g stroke="#1b120c" stroke-width="5" stroke-linejoin="round" stroke-linecap="round">
    <!-- Bart -->
    <path d="M164 218 C164 270 176 310 200 330 C214 341 256 341 270 330 C294 310 306 270 306 218 C300 246 290 266 272 272 C258 276 212 276 198 272 C180 266 170 246 164 218 Z" fill="#c79a52"/>
    <!-- Schnurrbart -->
    <path d="M200 272 C212 262 226 262 235 268 C244 262 258 262 270 272 C258 276 246 276 235 274 C224 276 212 276 200 272 Z" fill="#b68842" stroke-width="3.5"/>
    <!-- Mund mit Zähnen -->
    <path d="M204 280 C214 312 256 312 266 280 Z" fill="#7a2a24"/>
    <path d="M207 281 L263 281 C260 290 250 294 235 294 C220 294 210 290 207 281 Z" fill="#ffffff" stroke-width="3"/>
    <!-- Haare -->
    <path d="M162 212 C158 184 160 152 174 130 C182 116 194 106 206 100 L212 86 L226 94 C236 82 252 76 268 78 L280 68 L286 82 C302 88 314 104 318 128 C322 158 318 192 310 212 C306 196 300 184 294 176 C282 160 262 152 238 152 C214 152 192 160 180 174 C172 186 166 198 162 212 Z" fill="url(#hair)"/>
  </g>
  <path d="M162 212 C160 196 162 184 168 176 L176 196 C172 202 168 208 166 216 Z" fill="#b08840" opacity=".3"/>
  <path d="M308 212 C310 196 308 184 302 176 L294 196 C298 202 302 208 304 216 Z" fill="#b08840" opacity=".3"/>
  <!-- Haarsträhnen -->
  <g fill="none" stroke="#b38a40" stroke-width="3" stroke-linecap="round" opacity=".75">
    <path d="M204 128 C220 108 248 98 278 100"/><path d="M212 146 C230 126 262 118 298 124"/><path d="M182 158 C188 140 198 126 212 118"/><path d="M270 150 C284 138 300 134 312 136"/>
  </g>
  <g fill="none" stroke="#fff1c4" stroke-width="3.5" stroke-linecap="round" opacity=".9">
    <path d="M226 100 C246 90 270 88 294 98"/>
  </g>

  <!-- Augenbrauen -->
  <g fill="none" stroke="#c09448" stroke-width="7" stroke-linecap="round">
    <path d="M184 196 C194 188 208 188 218 194"/><path d="M252 194 C262 188 276 188 286 196"/>
  </g>
  <!-- Augen: fröhlich, leicht zusammengekniffen -->
  <g stroke="#1b120c" stroke-width="3.5">
    <path d="M186 222 C192 210 214 210 220 222 C212 230 194 230 186 222 Z" fill="#ffffff"/>
    <path d="M250 222 C256 210 278 210 284 222 C276 230 258 230 250 222 Z" fill="#ffffff"/>
  </g>
  <circle cx="203" cy="220" r="7" fill="#6f93b0"/><circle cx="267" cy="220" r="7" fill="#6f93b0"/>
  <circle cx="203" cy="220" r="3.4" fill="#1b120c"/><circle cx="267" cy="220" r="3.4" fill="#1b120c"/>
  <circle cx="205.5" cy="217.5" r="2" fill="#ffffff"/><circle cx="269.5" cy="217.5" r="2" fill="#ffffff"/>
  <!-- Lachfalten -->
  <g fill="none" stroke="#c98c70" stroke-width="3" stroke-linecap="round">
    <path d="M178 226 C181 232 184 234 188 235"/><path d="M292 226 C289 232 286 234 282 235"/>
  </g>
  <!-- Sommersprossen -->
  <g fill="#c77a4e" opacity=".7"><circle cx="190.1" cy="241.8" r="2.1"/><circle cx="190.6" cy="241.1" r="1.8"/><circle cx="179.4" cy="241.2" r="1.9"/><circle cx="203.7" cy="235.3" r="1.6"/><circle cx="175.6" cy="245.3" r="1.9"/><circle cx="173.7" cy="247.8" r="2.2"/><circle cx="198.2" cy="242.6" r="1.4"/><circle cx="172.6" cy="241.4" r="1.4"/><circle cx="179.6" cy="237.4" r="1.3"/><circle cx="190.6" cy="240.2" r="2.1"/><circle cx="278.8" cy="243.0" r="1.7"/><circle cx="284.5" cy="240.4" r="1.6"/><circle cx="297.9" cy="247.9" r="2.1"/><circle cx="286.3" cy="238.4" r="1.5"/><circle cx="269.6" cy="235.0" r="2.0"/><circle cx="274.0" cy="245.9" r="1.6"/><circle cx="296.3" cy="245.9" r="1.3"/><circle cx="266.4" cy="246.7" r="1.7"/><circle cx="297.2" cy="239.6" r="1.4"/><circle cx="283.2" cy="244.9" r="1.5"/><circle cx="229" cy="238" r="1.5"/><circle cx="240" cy="236" r="1.5"/><circle cx="234" cy="244" r="1.5"/><circle cx="244" cy="243" r="1.5"/></g>
  <!-- Nase -->
  <path d="M236 232 C238 244 244 252 240 258 C236 260 230 259 228 256" fill="none" stroke="#c98c70" stroke-width="4" stroke-linecap="round"/>

  <!-- Dose -->
  <circle cx="386" cy="150" r="74" fill="#9dff2e" opacity=".22" filter="url(#soft)"/>
  <g transform="translate(386 150) rotate(12)">
    <g stroke="#1b120c" stroke-width="5" stroke-linejoin="round">
      <rect x="-38" y="-72" width="76" height="144" rx="11" fill="url(#can)"/>
    </g>
    <g clip-path="url(#canClip)">
      <path d="M-60 -6 L60 -46 L60 -32 L-60 8 Z" fill="#9dff2e"/>
      <path d="M-60 18 L60 -22 L60 -14 L-60 26 Z" fill="#9dff2e"/>
      <path d="M-60 36 L60 -4 L60 0 L-60 40 Z" fill="#9dff2e"/>
      <rect x="-26" y="-72" width="9" height="144" fill="#ffffff" opacity=".12"/>
    </g>
    <ellipse cx="0" cy="-72" rx="34" ry="8" fill="url(#rim)" stroke="#1b120c" stroke-width="4"/>
    <rect x="-9" y="-83" width="18" height="9" rx="4.5" fill="none" stroke="#c9cfd6" stroke-width="3"/>
  </g>
  <!-- Hand hält die Dose: Faust mit Fingern, Daumen vorne -->
  <g stroke="#1b120c" stroke-width="5" stroke-linejoin="round" stroke-linecap="round">
    <path d="M356 190 C354 176 364 170 376 172 L414 180 C428 184 432 196 428 210 L422 234 C418 246 406 250 394 248 L368 242 C356 240 350 230 352 218 Z" fill="#f4c7aa"/>
    <path d="M364 196 L418 206 M360 214 L414 224 M358 230 L402 238" fill="none" stroke="#d49a7e" stroke-width="3"/>
    <path d="M356 192 C342 194 336 208 342 218 C348 226 360 224 366 214 L372 200" fill="#f4c7aa"/>
  </g>
</svg>
